<?xml version="1.0" encoding="UTF-8" standalone="no"?>
<!-- Created with Inkscape (http://www.inkscape.org/) -->

<svg
   width="210mm"
   height="210mm"
   viewBox="0 0 210 210"
   version="1.1"
   id="svg1"
   inkscape:version="1.3.2 (091e20e, 2023-11-25, custom)"
   sodipodi:docname="IDAN-2.svg"
   xmlns:inkscape="http://www.inkscape.org/namespaces/inkscape"
   xmlns:sodipodi="http://sodipodi.sourceforge.net/DTD/sodipodi-0.dtd"
   xmlns="http://www.w3.org/2000/svg"
   xmlns:svg="http://www.w3.org/2000/svg">
  <sodipodi:namedview
     id="namedview1"
     pagecolor="#ffffff"
     bordercolor="#000000"
     borderopacity="0.25"
     inkscape:showpageshadow="2"
     inkscape:pageopacity="0.0"
     inkscape:pagecheckerboard="0"
     inkscape:deskcolor="#262626"
     inkscape:document-units="px"
     inkscape:zoom="0.45344416"
     inkscape:cx="337.41751"
     inkscape:cy="393.65376"
     inkscape:window-width="1366"
     inkscape:window-height="705"
     inkscape:window-x="-8"
     inkscape:window-y="-8"
     inkscape:window-maximized="1"
     inkscape:current-layer="g11" />
  <defs
     id="defs1" />
  <g
     inkscape:label="Layer 1"
     inkscape:groupmode="layer"
     id="layer1"
     transform="translate(-43.500003)">
    <circle
       style="fill:#8800aa;fill-opacity:1;stroke:none;stroke-width:1.5;stroke-linecap:round;stroke-linejoin:round;stroke-dasharray:none"
       id="path11"
       cx="148.5"
       cy="105"
       r="105"
       inkscape:export-filename="..\..\..\..\..\Users\user pc\Desktop\logo-200.svg"
       inkscape:export-xdpi="24.536224"
       inkscape:export-ydpi="24.536224" />
    <g
       id="g11"
       inkscape:export-filename="..\..\..\..\..\Users\user pc\Desktop\favicon-200.svg"
       inkscape:export-xdpi="24.536224"
       inkscape:export-ydpi="24.536224"
       transform="matrix(0.84868893,0,0,0.84868893,30.589591,13.021525)"
       style="fill:#f9f9f9">
      <path
         id="path1"
         style="fill:#f9f9f9;stroke:none;stroke-width:0.037437;stroke-linecap:round"
         d="m 236.68017,50.250948 a 8.5818281,8.5818281 0 0 1 -11.95755,-2.076759 8.5818281,8.5818281 0 0 1 2.07677,-11.957537 8.5818281,8.5818281 0 0 1 11.95754,2.076757 8.5818281,8.5818281 0 0 1 -2.07676,11.957539 z"
         inkscape:export-filename="favicon-header-400.svg"
         inkscape:export-xdpi="49.072449"
         inkscape:export-ydpi="49.072449" />
      <path
         style="fill:none;stroke:#ffffff;stroke-width:3.53499;stroke-linecap:round;stroke-linejoin:round;stroke-dasharray:none;stroke-opacity:1"
         d="m 228.14045,45.767504 -87.9098,61.277086"
         id="path2"
         sodipodi:nodetypes="cc" />
      <path
         id="path1-1"
         style="fill:#f9f9f9;stroke:none;stroke-width:0.037437;stroke-linecap:round"
         d="m 41.11604,166.50332 a 8.5818281,8.5818281 0 0 1 11.95755,2.07676 8.5818281,8.5818281 0 0 1 -2.07677,11.95754 8.5818281,8.5818281 0 0 1 -11.95754,-2.07676 8.5818281,8.5818281 0 0 1 2.07676,-11.95754 z" />
      <path
         style="fill:none;stroke:#ffffff;stroke-width:3.53499;stroke-linecap:round;stroke-linejoin:round;stroke-dasharray:none;stroke-opacity:1"
         d="m 49.65576,170.98677 87.9098,-61.27709"
         id="path2-4"
         sodipodi:nodetypes="cc" />
      <path
         id="path1-63"
         style="fill:#f9f9f9;stroke:none;stroke-width:0.037437;stroke-linecap:round"
         d="m 143.83849,115.39428 a 8.5818281,8.5818281 0 0 1 -11.95754,-2.07676 8.5818281,8.5818281 0 0 1 2.07676,-11.95753 8.5818281,8.5818281 0 0 1 11.95754,2.07675 8.5818281,8.5818281 0 0 1 -2.07676,11.95754 z" />
      <text
         xml:space="preserve"
         style="font-style:normal;font-variant:normal;font-weight:normal;font-stretch:normal;font-size:95.605px;font-family:'Mongolian Baiti';-inkscape-font-specification:'Mongolian Baiti';fill:#f9f9f9;fill-opacity:1;stroke:none;stroke-width:3.68266;stroke-linecap:round;stroke-linejoin:round;stroke-dasharray:none"
         x="109.66699"
         y="208.51192"
         id="text5"><tspan
           sodipodi:role="line"
           id="tspan5"
           style="font-style:normal;font-variant:normal;font-weight:normal;font-stretch:normal;font-size:95.605px;font-family:'Mongolian Baiti';-inkscape-font-specification:'Mongolian Baiti';fill:#f9f9f9;stroke-width:3.68266"
           x="109.66699"
           y="208.51192">N</tspan></text>
      <text
         xml:space="preserve"
         style="font-style:normal;font-variant:normal;font-weight:normal;font-stretch:normal;font-size:95.605px;font-family:'Mongolian Baiti';-inkscape-font-specification:'Mongolian Baiti';fill:#f9f9f9;fill-opacity:1;stroke:none;stroke-width:3.68266;stroke-linecap:round;stroke-linejoin:round;stroke-dasharray:none"
         x="46.037498"
         y="138.3911"
         id="text6"><tspan
           sodipodi:role="line"
           id="tspan6"
           style="font-size:95.605px;fill:#f9f9f9;stroke-width:3.68266"
           x="46.037498"
           y="138.3911">I</tspan></text>
      <text
         xml:space="preserve"
         style="font-style:normal;font-variant:normal;font-weight:normal;font-stretch:normal;font-size:95.605px;font-family:'Mongolian Baiti';-inkscape-font-specification:'Mongolian Baiti';fill:#f9f9f9;fill-opacity:1;stroke:none;stroke-width:3.68266;stroke-linecap:round;stroke-linejoin:round;stroke-dasharray:none"
         x="109.36356"
         y="82.291206"
         id="text7"><tspan
           sodipodi:role="line"
           id="tspan7"
           style="font-size:95.605px;fill:#f9f9f9;stroke-width:3.68266"
           x="109.36356"
           y="82.291206">D</tspan></text>
      <text
         xml:space="preserve"
         style="font-style:normal;font-variant:normal;font-weight:normal;font-stretch:normal;font-size:95.605px;font-family:'Mongolian Baiti';-inkscape-font-specification:'Mongolian Baiti';fill:#f9f9f9;fill-opacity:1;stroke:none;stroke-width:3.68266;stroke-linecap:round;stroke-linejoin:round;stroke-dasharray:none"
         x="186.42383"
         y="134.9895"
         id="text8"><tspan
           sodipodi:role="line"
           id="tspan8"
           style="font-size:95.605px;fill:#f9f9f9;stroke-width:3.68266"
           x="186.42383"
           y="134.9895">A</tspan></text>
      <path
         id="path1-4"
         style="fill:#f9f9f9;stroke:none;stroke-width:0.037437;stroke-linecap:round"
         d="M 41.11604,50.25095 A 8.5818281,8.5818281 0 0 0 53.07359,48.174191 8.5818281,8.5818281 0 0 0 50.99682,36.216654 8.5818281,8.5818281 0 0 0 39.03928,38.293411 8.5818281,8.5818281 0 0 0 41.11604,50.25095 Z" />
      <path
         style="fill:none;stroke:#ffffff;stroke-width:3.53499;stroke-linecap:round;stroke-linejoin:round;stroke-dasharray:none;stroke-opacity:1"
         d="m 49.65576,45.767506 87.9098,61.277084"
         id="path2-5"
         sodipodi:nodetypes="cc" />
      <path
         id="path1-9"
         style="fill:#f9f9f9;stroke:none;stroke-width:0.037437;stroke-linecap:round"
         d="m 236.68017,166.50332 a 8.5818281,8.5818281 0 0 0 -11.95755,2.07676 8.5818281,8.5818281 0 0 0 2.07677,11.95753 8.5818281,8.5818281 0 0 0 11.95754,-2.07676 8.5818281,8.5818281 0 0 0 -2.07676,-11.95753 z" />
      <path
         style="fill:none;stroke:#ffffff;stroke-width:3.53499;stroke-linecap:round;stroke-linejoin:round;stroke-dasharray:none;stroke-opacity:1"
         d="m 228.14045,170.98676 -87.9098,-61.27708"
         id="path2-9"
         sodipodi:nodetypes="cc" />
    </g>
  </g>
</svg>
