<?xml version="1.0" encoding="UTF-8" standalone="no"?>
<!-- Created with Inkscape (http://www.inkscape.org/) -->

<svg
   width="30.611088"
   height="28.273708"
   viewBox="0 0 6.1222176 5.6547417"
   version="1.1"
   id="svg1"
   xmlns="http://www.w3.org/2000/svg"
   xmlns:svg="http://www.w3.org/2000/svg">
  <defs
     id="defs1" />
  <g
     id="layer1"
     transform="translate(-0.1365485,-0.37041613)">
    <g
       id="g7"
       transform="translate(0.22123365,0.18776091)"
       style="fill:none;stroke:#cccccc;stroke-width:0.36;stroke-dasharray:none">
      <path
         id="rect1"
         style="fill:none;stroke:#cccccc;stroke-width:0.337652;stroke-linecap:round;stroke-linejoin:round;stroke-dasharray:none"
         d="M 1.0812781,2.9194589 H 1.8495958 V 5.9019141 H 1.0812781 A 0.51877984,0.51877984 45 0 1 0.56249827,5.3831343 V 3.4382387 A 0.51877984,0.51877984 135 0 1 1.0812781,2.9194589 Z"
         transform="matrix(1.1286274,0,0,1.0071973,-0.52899418,-0.27703637)" />
      <path
         d="M 2.6056808,0.36265484 C 2.3406379,0.68973801 2.7342575,2.1832959 1.5585103,2.6634348 l 5.449e-4,0.4889167 h 0.0022 V 3.9840649 4.8157783 5.6474916 H 4.260707 C 4.557316,5.6476345 4.7978308,5.4714217 4.7976867,5.2536844 V 5.2095852 C 4.7975032,4.9920182 4.5570843,4.8156352 4.260707,4.8157783 H 4.4467541 C 4.7636048,4.815851 5.02048,4.6392172 5.0203262,4.4215302 V 4.377872 C 5.0201299,4.160355 4.7633574,3.9839923 4.4467541,3.9840649 H 4.783579 C 4.9096615,3.9831899 5.0325182,3.9594216 5.1367158,3.9157108 5.3143864,3.8432755 5.4218281,3.7209993 5.4232813,3.5898168 V 3.546158 C 5.4232446,3.4140492 5.3156345,3.2905666 5.1367158,3.2176185 5.0319662,3.1749858 4.9091517,3.1523244 4.783579,3.1523515 h 0.3531368 0.00925 c 0.3931223,1.3e-6 0.7117578,-0.1766124 0.7115668,-0.394248 V 2.7140045 C 5.8577293,2.4963685 5.5390903,2.3201958 5.1459741,2.3201972 H 3.2502328 C 3.4708085,2.1350149 3.7665575,0.41496309 2.6056808,0.36265484 Z"
         style="fill:none;stroke:#cccccc;stroke-width:0.36;stroke-linecap:round;stroke-linejoin:round;stroke-dasharray:none"
         id="path7" />
    </g>
  </g>
</svg>
