<?xml version="1.0" encoding="UTF-8" standalone="no"?>
<!-- Created with Inkscape (http://www.inkscape.org/) -->

<svg
   width="32"
   height="32"
   viewBox="0 0 6.4 6.4"
   version="1.1"
   id="svg1"
   xmlns="http://www.w3.org/2000/svg"
   xmlns:svg="http://www.w3.org/2000/svg">
  <defs
     id="defs1" />
  <g
     id="layer1">
    <g
       id="g7">
      <path
         id="rect1"
         style="fill:#cc00ff;stroke:none;stroke-width:0.352125;stroke-linecap:round;stroke-linejoin:round;stroke-dasharray:none"
         d="M 1.0812781,2.9194589 H 1.8495958 V 5.9019141 H 1.0812781 A 0.51877984,0.51877984 45 0 1 0.56249827,5.3831343 V 3.4382387 A 0.51877984,0.51877984 135 0 1 1.0812781,2.9194589 Z"
         transform="matrix(1.0377593,0,0,1.0071973,-0.25664739,-0.08927546)" />
      <path
         d="M 2.8269144,0.55041575 C 2.5618715,0.87749892 2.9554911,2.3710568 1.7797439,2.8511957 l 5.449e-4,0.4889167 h 0.0022 V 4.1718258 5.0035392 5.8352525 H 4.4819406 C 4.7785497,5.8353954 5.0190644,5.6591826 5.0189203,5.4414453 V 5.3973461 C 5.0187369,5.1797791 4.7783179,5.0033961 4.4819406,5.0035392 h 0.1860471 c 0.3168508,7.27e-5 0.573726,-0.1765611 0.5735722,-0.3942481 V 4.5656329 C 5.2413635,4.3481159 4.9845911,4.1717532 4.6679877,4.1718258 H 5.0048126 C 5.1308952,4.1709508 5.2537519,4.1471825 5.3579495,4.1034717 5.5356201,4.0310364 5.6430617,3.9087602 5.644515,3.7775777 V 3.7339189 C 5.6444783,3.6018101 5.5368681,3.4783275 5.3579495,3.4053794 5.2531999,3.3627467 5.1303853,3.3400853 5.0048126,3.3401124 h 0.3531368 0.00925 C 5.7603217,3.3401137 6.0789572,3.1635 6.0787662,2.9458644 V 2.9017654 C 6.0789629,2.6841294 5.7603239,2.5079567 5.3672078,2.5079581 H 3.4714665 C 3.6920421,2.3227758 3.9877911,0.602724 2.8269144,0.55041575 Z"
         style="fill:#cc00ff;stroke:none;stroke-width:0.36;stroke-linecap:round;stroke-linejoin:round;stroke-dasharray:none"
         id="path7" />
    </g>
  </g>
</svg>
